<svg xmlns="http://www.w3.org/2000/svg" viewBox="0 0 177.73 129.05"><g id="Layer_2" data-name="Layer 2"><g id="Layer_1-2" data-name="Layer 1"><path d="M95.79,86h28.67c21.49,0,37.33,0,52.71-.11h.56v-.56c0-2.44-.06-4.89-.13-7.48-.07-2.44-.14-4.95-.14-7.46,0-.37,0-.8,0-1.23.06-1.52.34-3.3-.17-4.13A7.26,7.26,0,0,0,175,63c-.46-.3-.9-.58-1.26-.84l-4.51-3.26c-2.46-1.78-4.85-3.51-7.38-5.3-5.16-3.64-10.32-7.45-15.32-11.14-5.29-3.91-10.77-8-16.28-11.83l-1.48-1c-2-1.42-4.35-3-6.43-4.62L121,24c-2.19-1.75-4.37-3.8-7.64-4.33a23.68,23.68,0,0,0-2.93-.35,29.91,29.91,0,0,0-7.28,1.11s-2.68.58-3.64.76c-.15,0-2.2-.12-2.31-.13a16.89,16.89,0,0,1-5-1.46c-.57-.23-1.12-.46-1.65-.64a8.5,8.5,0,0,0-1-.28c-.21-.05-.42-.09-.66-.16-2.36-.63-7.9-.91-12.09-.62l-1.63.23s-1.3.21,0,0a21.3,21.3,0,0,0-8.69,3.75,2.42,2.42,0,0,1-1.77.5c-2-.71-1-2.91-.15-3.7a2.5,2.5,0,0,0,.66-1c1.67-4.94-2.25-3.9-4.2-3.23a4.36,4.36,0,0,0-.85.39l-.63.37a2.47,2.47,0,0,1-2.78.2c-1.06-.2-8.72-9.69-9.8-10.61a2.5,2.5,0,0,1-.32-.33C40.35-4,37.35,2,36.93,2.8c-1.14,2.12-3.32.84-4.06.3-.2-.14-.62-.42-.83-.53-9.64-5-5.78,9.92-5.29,10.4,8.44,7.7,3.23,8.2,3.23,8.2s-17.12-10.68-24.07-8c-.5,0-7.45,6.21,13.15,17.38,0,0,2.48,9.41.25,12.4a.82.82,0,0,0-.62.45c-2.44,2.68-5,5.6-7.69,8.68S5.33,58.6,2.57,61.64L2,62.26a7.25,7.25,0,0,0-1.8,2.32,14,14,0,0,0-.08,3.76c0,.58.07,1.13.07,1.6v3.8c0,4,0,8,.1,11.61v.53H.81c2.35.08,5,.12,7.71.12,2.29,0,71,0,87.27,0" style="fill:#fff"/><path d="M29.76,81.73c-1.22-.29-1.63,1.75-2.52,2.26-1.27-.12-.9-1.6-1.26-2.62a16.38,16.38,0,0,0-.9-1.62A6.16,6.16,0,0,1,24.27,78c0-.9,1-1.39,1.26-2.25.29-1.11-.3-2.56-.18-3.6.16-1.4,1.9-3.81,3.24-2.25A10.12,10.12,0,0,1,29,71.29c1.06,2.3,4.05,4,4.41,7.56.19,1.83-.39,3.83-.73,6h-2c-.38-1.07.07-2.85-1-3.1" style="fill:#e92428"/><path d="M30.93,55.8c1-.11,1.23.69,1.89,1.8a17.1,17.1,0,0,1,1.53,2.25c.21.5.32,1.29.54,2s.56,1.37.63,1.8a29,29,0,0,1,.09,3.42c.08,1.89.44,4.5-.9,4.51s-1.35-3-2-4.15c-1.07-1.82-3.12-2.09-3.51-4.59-.25-1.5.38-2.77.53-3.78C30,57.37,29.3,56,30.93,55.8" style="fill:#e92428"/><path d="M45.34,68.22c.95,0,1.8.63,1.8,1.17s-.7.73-1.26,1.27a8.93,8.93,0,0,0-.54.72,8.73,8.73,0,0,0-.81.72c-1.21,1.62-1.36,4.29-3.07,5.31-1.9.24-2.28-1.06-3.05-2.25s-1.8-2.77-.36-4c.72-.65,2.25-1,3.6-1.54s2.45-1.31,3.69-1.35" style="fill:#e92428"/><path d="M42.37,57.42c1.24-.81,3.59.42,3.87,1.89a6,6,0,0,1-.45,2.7c-1.23.25-2-.63-2.61-1.26.09-1.47-.9-1.87-.81-3.33" style="fill:#e92428"/><path d="M36.06,84.84a8.05,8.05,0,0,0,.45-1.57c.09-1.3-.41-2.62.36-3.43.11,0,.17,0,.19.09.78.28.94,1.11,1.53,1.63,1.21,1.06,2.93,1,5.22,1.07a2.28,2.28,0,0,1,.94,2.22Z" style="fill:#e92428"/><path d="M40.57,54.63c-1.88.26-2.14-2.12-3.25-2.88-1.38.52,0,3.36-2,2.88-.71-.18-.7-1.19-1.25-1.72.14-1.47-.53-2.42-.55-3.51,0-.8.33-2.3,1.17-2.25,1.32.08,1.22,3,2.35,3.15.76.09,1.27-1,2.07-1.08,1.19-.07,2.79,2.15,2.79,3.33,0,.78-.55,2-1.35,2.08" style="fill:#e92428"/><path d="M51.28,60.3c.12-1,1.83-.37,3-.63.41-.09,1.32-.7,1.62-.72.8-.05,1.3.6,1.8.9.26,2.89-.48,4.63-2.8,3.42-.48-.25-1.18-.88-2-1.35-.64-.37-1.68-1.1-1.62-1.62" style="fill:#e92428"/><path d="M61.91,63.81a12.5,12.5,0,0,1,5.31.18c1.42.53,2,2,3.43,2.61,1.93-.23,1-3.23,2.79-3.42a2.31,2.31,0,0,1,1.89,1.27c.68,1.14,1.84,6.28,1,8.36-.16.4-.84.77-1.35,1.18-1.33,1.06-2,2.65-3.52,3.24a9.48,9.48,0,0,1-4.41.18,3.68,3.68,0,0,1-1.89-.9,8.25,8.25,0,0,1-.54-2.34,9.35,9.35,0,0,0-1.8-3.24c-.79-1-1.9-1.55-2.25-2.8-.5-1.74.27-3.94,1.35-4.32" style="fill:#e92428"/><path d="M56.24,24.28a16.64,16.64,0,0,1,1.17-4c.56-.95,3.51-3.48,5.13-3.7a2.1,2.1,0,0,1,1,.09c.36,1.25-.81,2.48-1.08,3.61a31.84,31.84,0,0,0-.1,3.23,23,23,0,0,1-.62,3.34c-.35,1.62-.52,4.75-2,4.77-.92,0-1.41-1.53-1.89-2.16-.71-.91-1.7-1.41-2.07-2.43a5.74,5.74,0,0,1,.45-2.79" style="fill:#e92428"/><path d="M52.9,27.52a34,34,0,0,1,3,2.8c.88,1.1,1.54,2.18,2.26,3.15a5.52,5.52,0,0,1,1,2.07c.23,1.19,0,2.53.45,3.69.65,1.76,2.07,3.24,3,4.94A86.09,86.09,0,0,0,70.1,56.24c.5.67,1.5,1.52,1,2.53-.73.42-1.34-.36-2-.63s-1.18-.27-1.71-.54c-3.15-1.6-4.22-5.11-6.22-8-3.25-4.74-5.8-10-9.45-14.41a21.9,21.9,0,0,0-2.16-2.6,37.54,37.54,0,0,0-7.2-5c-.66-.33-2-.61-2-1.53s2.37-1.93,3.24-2.16c2-.52,4.84-.37,6.39.72a28.89,28.89,0,0,1,2.88,2.88" style="fill:#e92428"/><path d="M42.82,15.18c-.58-.85-1.25-.85-1.17-2.16,1.48.21,3.25,2.74,3.42,4.42.1,1-.18,4.12-1.26,4s-.09-1.12,0-1.72a7.74,7.74,0,0,0-1-4.5" style="fill:#e92428"/><path d="M40.21,3.39a4.21,4.21,0,0,1,2.61.9A25.72,25.72,0,0,1,45,6.09a6.49,6.49,0,0,1,2.07,3.24c-.74.09-1.22-.8-2.07-.81-.37,0-.64.29-1,.36-1,.23-2.06.23-2.25,1.35.54,1.81-.93,2.24-1.8,1.08a8.42,8.42,0,0,1-1.35-3,6.15,6.15,0,0,1,1.62-4.95" style="fill:#e92428"/><path d="M39.22,38c1-.17,1.68-1.33,2.61-1.44a4.08,4.08,0,0,1,1.8.36c1.08.46,2.29,1.39,3.51,2.07s2.77,1.31,3,2.51c-.39.27-.84-.08-1.35,0C47.37,43,44.8,43.4,43.45,45a5,5,0,0,0,.63,2.79,10.91,10.91,0,0,0,2.07,3.06c.42.33,1,.32,1.35.63,1.14,1,1.59,3.31,0,4.33-1.07-.07-1.17-.95-1.62-1.81s-1.56-1.56-2.16-2.43c.27-1.24-1.06-1.83-1.27-2.79s0-2.08-.26-3.15a31,31,0,0,0-1.62-4.41c-.7-1.51-2.12-1.57-2.8-3,.47-.71.86-.17,1.45-.26" style="fill:#e92428"/><path d="M31.2,11.76c-.16.54.17,1.3-.45,1.71-.5,0-.55-.62-.81-1a8.61,8.61,0,0,1-1.8-2.7c-.35-1.25-.37-5.15.63-5.58s2.17.53,3,1c1.67.95,3.53,2.3,4.14,4.13-2,.6-4.1.48-4.68,2.44" style="fill:#e92428"/><path d="M31.29,22.93c1.3.17,1.75,1.51,3.15,1.35.94-.11,1.34-1.39,1.35-2.34a9,9,0,0,0-1.08-3.87A31.63,31.63,0,0,1,33,15c-.06-.24.19-.18.27-.27s.08,0,.09.09a10.7,10.7,0,0,1,4.06,6.66c.34,2.82-1.27,5.81-4.15,5.14-1.44-.34-3.58-2.34-2-3.69" style="fill:#e92428"/><path d="M17.52,25.72a23.43,23.43,0,0,0-3.43-1.08c-.13-1.45-1-2.05-1.8-3.06-.95-1.17-1.69-2.31-2.7-3.42a5.75,5.75,0,0,1-1.36-1.72.55.55,0,0,1,.28-.09,13,13,0,0,1,6.3.63c.64.28,1.23.85,1.89,1.18,1.51.74,2.49,1.08,4.05,2,.7.41,1.48,1,2,1,.77,0,1.12-1.09,1.89-1.09s2.65,2.79,3.15,3.43l1.45,1.89c.43.58,1.67,1.73,1.07,2.61-.23.34-.76.3-1.35.45-1.36.34-3.18,1.56-5,1.53-.53,0-1.13-.44-1.79-.36-.93-.54-.94-1.61-1.62-2.34a9.15,9.15,0,0,0-3.06-1.53" style="fill:#e92428"/><path d="M20.57,50.84c.26-1.47.75-2.9,1.08-4.32s.87-2.93,1.09-4.32c.06-.4-.08-.87,0-1.26a12.77,12.77,0,0,1,.72-1.53c.21-.61.26-1.35.45-1.8.26-.62,1.2-1.2,1.26-1.89.07-.91-1.11-1.54-.36-2.17,1.4,0,4.72.43,5.13,1.71a10.59,10.59,0,0,1-.27,3.25c-.55,3.12-1.29,6.23-2,9.09C26.38,53,26,57.71,23.73,61.29a35.7,35.7,0,0,1-.9,5.85c-1,5.67-.91,11.89-1.82,17.67H19.37c-.81-3.34-.79-7.64-.6-11.91.12-2.61,0-5.21.18-7.74s.61-4.81.82-7.2.41-4.89.8-7.12" style="fill:#e92428"/><path d="M176.6,70c0-1.53.28-3.92-.27-4.82s-2.62-2-3.84-2.86c-4.13-3-7.79-5.66-11.79-8.49C150.16,46.34,140,38.49,129.34,31c-2.4-1.68-5.28-3.66-7.86-5.62s-5-4.32-8.67-4.92a19.6,19.6,0,0,0-8.57.89,18.35,18.35,0,0,1-7.24.9c-2.38-.2-4.55-1.41-6.43-2.06-.68-.23-1.09-.27-1.7-.44A31.74,31.74,0,0,0,79,19.21c-1.17.08-2.45.19-3.66.37a11.62,11.62,0,0,0-3.3.8,53.86,53.86,0,0,1,11.43.53c3.47.61,6.32,2.25,9.74,2.59a41.27,41.27,0,0,0,6.16-.27,32.43,32.43,0,0,1,7.33-2.14c5.37-.62,7.34,2,10,4,.59.45,1.45.77,1.52,1.52,0,.28-.8-.15-.71.26,2.31,2.59,4.79,5.23,7.23,7.6a7.38,7.38,0,0,1,2.15,2.68c-3.47-2-6.21-4.75-10-6.43,0,.55.58.88.9,1.25,1.82,2.18,3.68,4.38,5.44,6.52.71.85,1.8,1.54,2,2.67a5.31,5.31,0,0,1-2.14-.89c-8.81-4.56-17.59-9-26.44-13.58-1.44-.73-2.71-1.76-4.12-2-.82-.18-1.75-.1-2,.26-.63,1.07,1.22,2.67,1.79,3.39.88,1.13,1.66,2.2,2.32,3,2,2.55,4.29,5.2,5.71,8a3.78,3.78,0,0,1,.72,2.06A45.25,45.25,0,0,1,95.57,38C93.78,36.8,92,35.52,90.12,34.4s-3.8-2.13-5.71-3.31c-2.69-1.64-5.72-3.58-9.83-3.3-.6,3.35.31,7.69-1.52,10.09-1.25,1.65-4.15,2.44-6.7,1.7-.76-.22-1.34-.8-2.14-.8-.56,1.95.67,3,1.43,4.19.39.63.7,1.36,1.07,2,1.58,2.58,3.21,4.91,4.73,7.41A19.6,19.6,0,0,0,74,56c1,1,2.25,1.28,2.51,2.85.19,1.19-.41,2.1-.36,3.13.05,1.28.76,2.6,1.07,3.93a19.18,19.18,0,0,1,.8,7.42c-.34,2.34-3.12,4.92-5.36,5.53A10.25,10.25,0,0,1,70.2,79c-1.9.1-2.5,1.35-4.46.9a6.8,6.8,0,0,1-2.33-2c-2.81-4.2-2.93-10.21-9.91-10.19-2.84,0-5.41,1.45-5.9,3.75A43.19,43.19,0,0,0,47.24,78c-.06,2.42,0,4.86.09,6.88,42.8-.06,86.59.12,129.53-.09,0-4.76-.26-9.76-.26-14.83" style="fill:#254695"/><path d="M1.37,84.79c-.11-3.43-.09-7.3-.08-11.05v-3.8c0-.49,0-1.06-.08-1.66a13.66,13.66,0,0,1,.06-3.43A10.63,10.63,0,0,1,2.8,63l.6-.64c2.76-3,5.65-6.33,8.44-9.52,2.43-2.76,4.73-5.39,6.94-7.85l.4-.31c-1.86,12.56-3.31,40.13-3.42,40.12s-.32,0-.32,0c-4.12.13-9.66,0-14.07-.09" style="fill:#254695"/><path d="M159.06,83.72a16.36,16.36,0,0,0,2-2.62,9.57,9.57,0,0,0,1.53-2.87c-.62-.39-1.07-.07-1.62-.09A11,11,0,0,1,150.06,67.6c-.4-5.17,3.24-8.49,8-9,1.53-.16,3.1.21,4.31-.27a11.31,11.31,0,0,0-2.07-3.51c-9.53.73-16.84,3.6-17.91,12.61a14.15,14.15,0,0,0,2.87,11.07c2.85,3.47,7.34,5.5,13.78,5.23" style="fill:#fff"/><path d="M117.55,83.09c1.9.48,4.16.27,6.48.27s4.6,0,6.76-.1c3.62-.24,7.37-1.17,9-3.06s1.51-6.07,0-8.19a4.16,4.16,0,0,1-1.08-1.17c-.63-.37-1.23-.8-1.9-1.17a5.68,5.68,0,0,1-1.88-1.17c2-1,4.21-2.48,4.59-5a6.84,6.84,0,0,0-1.89-5.76c-3.1-2.72-8.89-2.43-14.86-2.43-1.24,0-2.71-.29-3.42,0a8.39,8.39,0,0,0-2,2.7c-.39,1.75,0,4.22,0,6.3,0,6.27-.15,13.09.18,18.74m16.2-7.3c.23,3.94-5.14,5.22-9.09,5.23V71.11a8.09,8.09,0,0,1,7.11,1.53c.76.67,1.92,2,2,3.15m-9-17.47c.12,0,.14-.16.27-.18,3.34.21,6,1.12,6.84,3.78.55,5-3.14,6.21-7.11,6.4-.14-3.13-.15-6.87,0-10" style="fill:#fff"/><path d="M88.46,74.17a100.43,100.43,0,0,0,.18,10.08,9.89,9.89,0,0,0,3.78-2.07c.06-4.93-.12-10.56.09-15a38.94,38.94,0,0,1,3.7,4.22c3.09,3.54,6.15,7.11,9.18,10.81.46.57,1.31,1.79,1.82,2h.34A6.39,6.39,0,0,0,108.63,83c1-1,1.67-1.64,2.62-2.61.33-.33,1.2-.9,1.25-1.35s-.38-.84-.63-1.35c-.82-1.69-.54-4.14-.54-6.84V57.33a4.59,4.59,0,0,0-.26-2.52,16.32,16.32,0,0,0-4.24,2.61c-.06,4.69.13,10.13-.09,14.32-4-4.65-8.07-9.91-11.88-14.86-.45-.57-1.43-2-1.9-2s-1.15.82-1.62,1.17c-1.35,1-2.15,1.45-3.33,2.43-.43.36-1.43.89-1.44,1.44s.94,1.26,1.26,2c1.29,2.83.63,8.1.63,12.25" style="fill:#fff"/><path d="M63,69.67c2,1.73,2.33,4.83,4.59,6.21,2.86,1.73,6.54-.34,7-2.79C75,71.39,74.29,68,73,68c-2.07,0-.26,4.42-.36,5.4-.19,1.76-2,2.28-3.61,1.63A6,6,0,0,1,67,72.64c-.33-.78-.49-2-.81-2.62-.63-1.26-2-3-3.78-2.52-.37.1-.74.12-.81.63-.14,1,.65.84,1.44,1.54" style="fill:#fff"/><path d="M22.72,104.74a9,9,0,0,0-5.93-2.07,8.68,8.68,0,0,0,0,17.35,8.9,8.9,0,0,0,3.51-.69,9.65,9.65,0,0,0,2.42-1.56l3.85,5.76A13.94,13.94,0,0,1,22.72,126a17.62,17.62,0,0,1-7,1.47C6.53,127.51,0,120.71,0,111.37S6.71,95.05,15.8,95.05a17.46,17.46,0,0,1,6.36,1.17A15.78,15.78,0,0,1,26.7,99Z" style="fill:#254695"/><path d="M36.18,110.26,27.35,95.68h9.13l3.07,5.8a11,11,0,0,1,1,2.72,16.71,16.71,0,0,1,.44,3.29,28,28,0,0,1,.51-3.29,12.45,12.45,0,0,1,1-2.72l3.16-5.8h9l-8.82,14.58L56,126.88H46.78l-4.37-8.31A16.88,16.88,0,0,1,40.94,113a14.84,14.84,0,0,1-1.34,5.62l-4.29,8.31H26.1Z" style="fill:#254695"/><path d="M113.16,104.68a9,9,0,0,0-5.93-2.08,8.68,8.68,0,0,0,0,17.35,8.66,8.66,0,0,0,3.51-.69,9.65,9.65,0,0,0,2.42-1.56l3.85,5.76a13.8,13.8,0,0,1-3.85,2.51,17.62,17.62,0,0,1-7,1.47c-9.13,0-15.67-6.79-15.67-16.14S97.15,95,106.24,95a17.42,17.42,0,0,1,6.36,1.17,15.78,15.78,0,0,1,4.54,2.77Z" style="fill:#e92428"/><path d="M121.73,95.61h7.7L135,111.36a30,30,0,0,1,.95,6.58,29.25,29.25,0,0,1,.95-6.58l5.58-15.75h7.71l3.76,31.2h-7.74l-1.43-14.19a17.16,17.16,0,0,1-.22-3.16c0-1.21,0-2,.13-3.55a27.3,27.3,0,0,1-1.3,6.49l-5.1,14.41h-4.72l-5.11-14.41a32.33,32.33,0,0,1-.91-3.72c-.34-1.51-.39-1.69-.6-2.77.08.65.17,1.13.21,1.43.13,1.25.22,3,.22,4.15a9.5,9.5,0,0,1,0,1.13l-1.69,14.19h-7.75Z" style="fill:#e92428"/><path d="M158,116.51c2.56,2.95,5.2,4.46,7.84,4.46,2.29,0,4-1.38,4-3.29a2.31,2.31,0,0,0-1-1.9,20.13,20.13,0,0,0-4-1.6c-3.07-1-4.11-1.48-5.45-2.6a8.42,8.42,0,0,1-3-6.49c0-5.84,4.9-10.13,11.47-10.13a13.38,13.38,0,0,1,9.31,3.46L174,104.18c-2.17-1.91-4.07-2.86-6-2.86s-3.29,1.13-3.29,2.69a2.55,2.55,0,0,0,.87,1.86c.65.56,1.25.78,3.81,1.6a16.88,16.88,0,0,1,5.45,2.59,8.46,8.46,0,0,1,2.9,6.67c0,6.36-4.76,10.73-11.68,10.73a14.11,14.11,0,0,1-10.91-4.67Z" style="fill:#e92428"/><path d="M60.62,108h1a0,0,0,0,1,0,0v8.35a0,0,0,0,1,0,0h-1a4,4,0,0,1-4-4V112A4,4,0,0,1,60.62,108Z" style="fill:none;stroke:#254695;stroke-miterlimit:10;stroke-width:2px"/><path d="M84,108h1a0,0,0,0,1,0,0v8.35a0,0,0,0,1,0,0H84a4,4,0,0,1-4-4V112A4,4,0,0,1,84,108Z" transform="translate(165.02 224.36) rotate(180)" style="fill:none;stroke:#254695;stroke-miterlimit:10;stroke-width:2px"/><path d="M61.63,108v-4.18a9.19,9.19,0,0,1,9.19-9.19h0A9.2,9.2,0,0,1,80,103.83V108" style="fill:none;stroke:#254695;stroke-miterlimit:10;stroke-width:2px"/><path d="M80,116.36v2.5a9.19,9.19,0,0,1-9.19,9.19h0" style="fill:none;stroke:#254695;stroke-miterlimit:10;stroke-width:2px"/></g></g></svg>