<svg width="100" height="100" viewBox="0 0 100 100" fill="none" xmlns="http://www.w3.org/2000/svg">
<circle cx="50" cy="50" r="50" fill="#2D3A89"/>
<path d="M60.5938 39.0938C60.5938 45.2182 55.6245 50.1875 49.5 50.1875C43.3755 50.1875 38.4062 45.2182 38.4062 39.0938C38.4062 32.9693 43.3755 28 49.5 28C55.6245 28 60.5938 32.9693 60.5938 39.0938ZM49.5 56.2188C51.7548 56.2188 53.9002 55.7326 55.8375 54.875H60.25C65.6354 54.875 70 59.2396 70 64.625V65.9688C70 67.6421 68.6421 69 66.9688 69H32.0312C30.3579 69 29 67.6421 29 65.9688V64.625C29 59.2396 33.3646 54.875 38.75 54.875H43.1633C45.1064 55.732 47.2438 56.2188 49.5 56.2188Z" stroke="white" stroke-width="2"/>
</svg>
