<?xml version="1.0" encoding="utf-8"?>
<!-- Generator: Adobe Illustrator 19.0.0, SVG Export Plug-In . SVG Version: 6.00 Build 0)  -->
<svg version="1.1" id="Layer_1" xmlns="http://www.w3.org/2000/svg" xmlns:xlink="http://www.w3.org/1999/xlink" x="0px" y="0px"
	 viewBox="-261 384.2 87.4 25.8" style="enable-background:new -261 384.2 87.4 25.8;" xml:space="preserve">
<style type="text/css">
	.st0{fill:#FFFFFF;}
</style>
<g>
	<g>
		<g>
			<path class="st0" d="M-239.1,407c-0.3-0.2-2-1.2-2.8-3.1c2.1-2,3.3-4.7,3.3-7.5c0-5.8-5-10.5-11.2-10.5s-11.2,4.7-11.2,10.5
				s5,10.5,11.2,10.5c0.8,0,1.7-0.1,2.9-0.3c3.2,1.7,6.1,1.7,7.2,1.6c0.5,0,0.8,0.1,1-0.4C-238.6,407.5-238.8,407.1-239.1,407z
				 M-248.5,401.7c0,0.7-0.6,1.3-1.3,1.3s-1.3-0.6-1.3-1.3v-5.3c0-0.7,0.6-1.3,1.3-1.3s1.3,0.6,1.3,1.3V401.7z M-249.8,393.1
				c-0.7,0-1.3-0.6-1.3-1.3c0-0.7,0.6-1.3,1.3-1.3s1.3,0.6,1.3,1.3S-249.1,393.1-249.8,393.1z"/>
		</g>
	</g>
	<g>
		<path class="st0" d="M-232.5,390h2.1h3.3c0.4,0,0.6,0.1,0.6,0.2s-0.1,0.2-0.3,0.2c-0.9,0.1-1.4,0.4-1.6,0.9s-0.3,2.4-0.3,5.7
			c0,1.2,0,2.6,0.1,4.1s0.1,2.4,0.2,2.7s0.2,0.5,0.4,0.7s0.6,0.3,1.2,0.4c0.2,0,0.3,0.1,0.3,0.2s-0.1,0.2-0.3,0.2h-2.9h-2.5
			c-0.3,0-0.4-0.1-0.4-0.2c0-0.2,0.1-0.2,0.3-0.2c0.7,0,1.2-0.3,1.3-0.7s0.2-2,0.2-4.5c0-2.4,0-4.4-0.1-5.9s-0.2-2.4-0.4-2.8
			s-0.6-0.5-1.2-0.6c-0.2,0-0.3-0.1-0.3-0.3S-232.7,390-232.5,390z"/>
		<path class="st0" d="M-224.4,400.7c0-1.4,0.5-2.7,1.4-3.8c0.9-1.1,2-1.6,3.4-1.6c0.9,0,1.7,0.2,2.4,0.6s1.2,0.9,1.2,1.6
			c0,0.2-0.1,0.5-0.2,0.6s-0.3,0.3-0.5,0.3c-0.4,0-0.8-0.4-1-1.1c-0.4-1.1-1-1.6-1.9-1.6s-1.6,0.4-2,1.2s-0.7,1.8-0.7,3
			c0,1.5,0.3,2.7,1,3.6c0.6,0.9,1.4,1.4,2.3,1.4c0.6,0,1.2-0.2,1.7-0.7c0.6-0.5,0.9-1,1-1.7c0-0.2,0.1-0.3,0.3-0.3
			c0.1,0,0.2,0.1,0.2,0.2c0,0.8-0.4,1.5-1.1,2.2s-1.7,1-2.8,1c-1.3,0-2.4-0.5-3.3-1.5S-224.4,402-224.4,400.7z"/>
		<path class="st0" d="M-214.4,400.6c0-1.4,0.5-2.6,1.5-3.6s2.2-1.6,3.7-1.6c1.4,0,2.5,0.5,3.5,1.4s1.5,2.1,1.5,3.5
			s-0.5,2.7-1.5,3.7s-2.2,1.6-3.6,1.6c-1.4,0-2.5-0.5-3.5-1.5S-214.4,402-214.4,400.6z M-212.5,400.5c0,1.3,0.3,2.5,0.9,3.3
			s1.4,1.3,2.3,1.3c0.8,0,1.6-0.4,2.2-1.3s1-1.9,1-3.3c0-1.2-0.3-2.3-0.9-3.3c-0.6-1-1.4-1.4-2.4-1.4c-0.9,0-1.6,0.4-2.2,1.3
			C-212.2,398-212.5,399.2-212.5,400.5z"/>
		<path class="st0" d="M-199.7,395.4c0.2,0.5,0.3,1.2,0.3,2.3c0.5-0.8,1-1.3,1.6-1.7s1.2-0.6,1.9-0.6c0.5,0,1,0.1,1.5,0.3
			c0.5,0.2,0.9,0.5,1.1,1s0.4,1.3,0.4,2.5l-0.1,3.9c0,0.7,0.1,1.2,0.2,1.4c0.1,0.2,0.4,0.3,0.8,0.4c0.3,0.1,0.4,0.2,0.4,0.3
			c0,0.1-0.1,0.2-0.2,0.2c-0.1,0-0.1,0-0.2,0c-0.4-0.1-0.9-0.1-1.6-0.1c-0.6,0-1.3,0-2,0.1c-0.3,0-0.4-0.1-0.4-0.2s0.1-0.2,0.2-0.2
			c0.4-0.1,0.7-0.2,0.8-0.3s0.2-0.2,0.3-0.4s0.1-0.7,0.1-1.7s0.1-1.7,0.1-2.3c0-1.6-0.2-2.7-0.6-3.3s-0.9-0.8-1.5-0.8
			c-0.9,0-1.7,0.5-2.3,1.5s-0.9,2.6-0.9,4.9c0,1,0.1,1.7,0.2,2s0.5,0.5,1,0.5c0.2,0,0.3,0.1,0.3,0.2s-0.1,0.2-0.3,0.2h-0.6
			c-0.2,0-0.9,0-2.2,0h-0.9c-0.3,0-0.5-0.1-0.5-0.2s0.2-0.2,0.6-0.3c0.4-0.1,0.6-0.2,0.7-0.4c0.1-0.2,0.2-0.8,0.3-1.8
			c0-1,0.1-2.2,0.1-3.7c0-1.4-0.1-2.2-0.3-2.6s-0.4-0.5-0.8-0.6c-0.3-0.1-0.5-0.2-0.5-0.3c0-0.1,0.1-0.2,0.4-0.2h0.9
			C-201.2,395.5-200.6,395.4-199.7,395.4z"/>
		<path class="st0" d="M-186.6,395.4v2.6v2.5v1.9v1.4c0,0.6,0.1,0.9,0.3,1.1s0.5,0.2,0.8,0.3c0.4,0,0.6,0.1,0.6,0.3
			c0,0.1-0.1,0.2-0.2,0.2c-0.1,0-0.1,0-0.2,0c-0.7-0.1-1.4-0.1-2-0.1c-1,0-1.7,0-2.1,0.1c-0.1,0-0.2,0-0.2,0c-0.2,0-0.3-0.1-0.3-0.2
			s0.2-0.2,0.7-0.3s0.7-0.2,0.8-0.3s0.2-0.5,0.2-1.2l0.1-4.9c0-1.3-0.1-2.1-0.3-2.3s-0.6-0.4-1.1-0.4c-0.2,0-0.3-0.1-0.3-0.2
			s0-0.1,0.1-0.2s0.5-0.1,1.4-0.2S-186.9,395.4-186.6,395.4z M-187.9,389.7c0.3,0,0.6,0.1,0.8,0.3s0.4,0.5,0.4,0.7
			c0,0.3-0.1,0.6-0.3,0.8s-0.5,0.3-0.8,0.3s-0.6-0.1-0.8-0.3s-0.4-0.5-0.4-0.8s0.1-0.6,0.3-0.8S-188.2,389.7-187.9,389.7z"/>
		<path class="st0" d="M-183.6,400.7c0-1.4,0.5-2.7,1.4-3.8c0.9-1.1,2-1.6,3.4-1.6c0.9,0,1.7,0.2,2.4,0.6s1.2,0.9,1.2,1.6
			c0,0.2-0.1,0.5-0.2,0.6s-0.3,0.3-0.5,0.3c-0.4,0-0.8-0.4-1-1.1c-0.4-1.1-1-1.6-1.9-1.6s-1.6,0.4-2,1.2s-0.7,1.8-0.7,3
			c0,1.5,0.3,2.7,1,3.6c0.6,0.9,1.4,1.4,2.3,1.4c0.6,0,1.2-0.2,1.7-0.7c0.6-0.5,0.9-1,1-1.7c0-0.2,0.1-0.3,0.3-0.3
			c0.1,0,0.2,0.1,0.2,0.2c0,0.8-0.4,1.5-1.1,2.2s-1.7,1-2.8,1c-1.3,0-2.4-0.5-3.3-1.5S-183.6,402-183.6,400.7z"/>
	</g>
</g>
</svg>
