<?xml version="1.0" encoding="utf-8"?>
<!-- Generator: Adobe Illustrator 19.0.0, SVG Export Plug-In . SVG Version: 6.00 Build 0)  -->
<svg version="1.1" id="Layer_1" xmlns="http://www.w3.org/2000/svg" xmlns:xlink="http://www.w3.org/1999/xlink" x="0px" y="0px"
	 viewBox="-280 372 50 50" style="enable-background:new -280 372 50 50;" xml:space="preserve">
<style type="text/css">
	.st0{fill:#FFFFFF;}
</style>
<g>
	<g>
		<path class="st0" d="M-233.6,416.8c-0.6-0.4-4-2.4-5.6-6.2c4.2-4,6.6-9.3,6.6-14.9c0-11.5-9.9-20.8-22.2-20.8s-22.2,9.3-22.2,20.8
			c0,11.5,9.9,20.8,22.2,20.8c1.6,0,3.4-0.2,5.8-0.6c6.4,3.4,12.1,3.4,14.3,3.2c1,0,1.6,0.2,2-0.8C-232.6,417.8-233,417-233.6,416.8
			z M-252.2,406.3c0,1.4-1.2,2.6-2.6,2.6s-2.6-1.2-2.6-2.6v-10.5c0-1.4,1.2-2.6,2.6-2.6s2.6,1.2,2.6,2.6V406.3z M-254.8,389.2
			c-1.4,0-2.6-1.2-2.6-2.6c0-1.4,1.2-2.6,2.6-2.6s2.6,1.2,2.6,2.6S-253.4,389.2-254.8,389.2z"/>
	</g>
</g>
</svg>
