<?xml version="1.0" encoding="utf-8"?>
<!-- Generator: Adobe Illustrator 19.0.0, SVG Export Plug-In . SVG Version: 6.00 Build 0)  -->
<svg version="1.1" id="Layer_1" xmlns="http://www.w3.org/2000/svg" xmlns:xlink="http://www.w3.org/1999/xlink" x="0px" y="0px"
	 viewBox="-261.3 384.3 85 23" style="enable-background:new -261.3 384.3 85 23;" xml:space="preserve">
<style type="text/css">
	.st0{fill:#5D5D5D;}
</style>
<g>
	<g>
		<g>
			<path class="st0" d="M-239,405.7c-0.3-0.2-2-1.2-2.8-3.1c2.1-2,3.3-4.7,3.3-7.5c0-5.8-5-10.5-11.2-10.5s-11.2,4.7-11.2,10.5
				s5,10.5,11.2,10.5c0.8,0,1.7-0.1,2.9-0.3c3.2,1.7,6.1,1.7,7.2,1.6c0.5,0,0.8,0.1,1-0.4C-238.5,406.2-238.7,405.8-239,405.7z
				 M-248.4,400.4c0,0.7-0.6,1.3-1.3,1.3s-1.3-0.6-1.3-1.3v-5.3c0-0.7,0.6-1.3,1.3-1.3s1.3,0.6,1.3,1.3V400.4z M-249.7,391.8
				c-0.7,0-1.3-0.6-1.3-1.3c0-0.7,0.6-1.3,1.3-1.3s1.3,0.6,1.3,1.3S-249,391.8-249.7,391.8z"/>
		</g>
	</g>
	<g>
		<path class="st0" d="M-230.7,402.2h-1.7v-12.8h1.7V402.2z"/>
		<path class="st0" d="M-218.4,398.1L-218.4,398.1c0,1.3-0.4,2.3-1.2,3.1c-0.9,0.8-2,1.2-3.4,1.2c-1.4,0-2.6-0.5-3.5-1.5
			s-1.4-2.3-1.4-3.9v-2.3c0-1.6,0.5-2.9,1.4-3.9c0.9-1,2.1-1.5,3.5-1.5s2.6,0.4,3.5,1.2c0.9,0.8,1.3,1.8,1.2,3.1l0,0.1h-1.7
			c0-0.9-0.3-1.6-0.8-2.1s-1.3-0.8-2.2-0.8c-1,0-1.7,0.4-2.3,1.2c-0.6,0.8-0.9,1.7-0.9,2.9v2.3c0,1.2,0.3,2.1,0.9,2.9
			c0.6,0.8,1.3,1.2,2.3,1.2c1,0,1.7-0.3,2.2-0.8c0.5-0.5,0.8-1.2,0.8-2.1H-218.4z"/>
		<path class="st0" d="M-206.4,396.9c0,1.6-0.5,2.9-1.5,3.9s-2.2,1.5-3.8,1.5c-1.5,0-2.7-0.5-3.6-1.5s-1.4-2.3-1.4-3.9v-2.3
			c0-1.6,0.5-2.9,1.4-3.9s2.1-1.6,3.6-1.6c1.5,0,2.8,0.5,3.8,1.6s1.5,2.3,1.5,3.9V396.9z M-208.1,394.6c0-1.2-0.3-2.1-0.9-2.9
			s-1.5-1.1-2.5-1.1c-1,0-1.8,0.4-2.4,1.1s-0.9,1.7-0.9,2.9v2.3c0,1.2,0.3,2.2,0.9,2.9s1.4,1.1,2.4,1.1c1.1,0,1.9-0.4,2.6-1.1
			c0.6-0.7,0.9-1.7,0.9-2.9V394.6z"/>
		<path class="st0" d="M-194.1,402.2h-1.7l-6.2-9.9l-0.1,0v9.9h-1.7v-12.8h1.7l6.2,9.9l0.1,0v-9.9h1.7V402.2z"/>
		<path class="st0" d="M-189.1,402.2h-1.7v-12.8h1.7V402.2z"/>
		<path class="st0" d="M-176.8,398.1L-176.8,398.1c0,1.3-0.4,2.3-1.2,3.1c-0.9,0.8-2,1.2-3.4,1.2c-1.4,0-2.6-0.5-3.5-1.5
			c-0.9-1-1.4-2.3-1.4-3.9v-2.3c0-1.6,0.5-2.9,1.4-3.9c0.9-1,2.1-1.5,3.5-1.5s2.6,0.4,3.5,1.2c0.9,0.8,1.3,1.8,1.2,3.1l0,0.1h-1.7
			c0-0.9-0.3-1.6-0.8-2.1s-1.3-0.8-2.2-0.8c-1,0-1.7,0.4-2.3,1.2s-0.9,1.7-0.9,2.9v2.3c0,1.2,0.3,2.1,0.9,2.9s1.3,1.2,2.3,1.2
			c1,0,1.7-0.3,2.2-0.8c0.5-0.5,0.8-1.2,0.8-2.1H-176.8z"/>
	</g>
</g>
</svg>
